<?xml version="1.0" standalone="no"?>
<!DOCTYPE svg PUBLIC "-//W3C//DTD SVG 20010904//EN"
 "http://www.w3.org/TR/2001/REC-SVG-20010904/DTD/svg10.dtd">
<svg version="1.0" xmlns="http://www.w3.org/2000/svg"
 width="16.000000pt" height="16.000000pt" viewBox="0 0 16.000000 16.000000"
 preserveAspectRatio="xMidYMid meet">
<metadata>
Created by potrace 1.11, written by Peter Selinger 2001-2013
</metadata>
<g transform="translate(0.000000,16.000000) scale(0.004360,-0.004360)"
fill="#000000" stroke="none">
<path d="M1965 3343 c-71 -9 -196 -36 -275 -59 -89 -27 -280 -112 -280 -124 0
-4 110 -70 245 -146 196 -110 245 -142 245 -158 0 -12 -9 -130 -21 -264 -12
-137 -18 -247 -13 -252 5 -4 86 -31 179 -60 94 -29 175 -55 181 -59 7 -4 -6
-66 -38 -186 -26 -99 -46 -185 -44 -190 2 -6 78 -40 170 -75 102 -40 166 -70
166 -78 0 -8 -14 -88 -31 -179 -19 -95 -28 -167 -23 -172 5 -4 66 -23 136 -41
125 -32 127 -33 122 -59 -23 -120 -52 -286 -51 -288 1 -1 72 -14 157 -29 85
-15 158 -30 162 -33 4 -4 -14 -83 -41 -176 -26 -94 -47 -172 -45 -173 1 -2 29
13 61 33 351 224 588 568 679 985 27 122 27 459 0 580 -29 136 -72 256 -136
385 -252 508 -781 830 -1351 824 -68 -1 -137 -4 -154 -6z"/>
<path d="M685 3003 c-369 -245 -617 -659 -675 -1127 -15 -118 -8 -346 15 -456
36 -180 115 -367 223 -530 79 -119 281 -319 402 -399 286 -188 622 -277 950
-250 140 11 239 31 370 76 95 32 240 97 240 107 0 3 18 73 41 156 22 84 38
157 36 163 -2 7 -71 30 -153 51 -82 22 -150 40 -151 41 -1 0 8 66 21 145 13
80 21 148 17 151 -3 3 -60 25 -126 49 -66 24 -122 44 -124 46 -2 2 13 73 33
159 20 86 36 165 36 175 0 13 -41 35 -170 91 -97 42 -170 80 -170 87 0 7 22
87 49 177 28 90 51 172 53 181 2 13 -33 27 -187 74 -104 32 -190 61 -192 66
-1 5 6 122 16 259 15 196 16 253 7 263 -17 18 -468 292 -481 292 -5 0 -42 -21
-80 -47z m246 -1167 c230 -49 396 -268 376 -496 -21 -234 -202 -415 -437 -436
-236 -21 -461 159 -500 401 -36 225 105 450 325 518 94 30 144 32 236 13z"/>
</g>
</svg>
